HIERARCHY
ROOT Hips
{
	OFFSET 0.000000 0.000000 0.000000
	CHANNELS 6 Xposition Yposition Zposition Zrotation Yrotation Xrotation 
	JOINT LHipJoint
	{
		OFFSET 0.000000 0.000000 0.000000
		CHANNELS 3 Zrotation Yrotation Xrotation
		JOINT LeftUpLeg
		{
			OFFSET 1.363060 -1.794630 0.839290
			CHANNELS 3 Zrotation Yrotation Xrotation
			JOINT LeftLeg
			{
				OFFSET 2.448110 -6.726130 0.000000
				CHANNELS 3 Zrotation Yrotation Xrotation
				JOINT LeftFoot
				{
					OFFSET 2.562200 -7.039590 0.000000
					CHANNELS 3 Zrotation Yrotation Xrotation
					JOINT LeftToeBase
					{
						OFFSET 0.157640 -0.433110 2.322550
						CHANNELS 3 Zrotation Yrotation Xrotation
						End Site
						{
							OFFSET 0.000000 0.000000 0.000000
						}
					}
				}
			}
		}
	}
	JOINT RHipJoint
	{
		OFFSET 0.000000 0.000000 0.000000
		CHANNELS 3 Zrotation Yrotation Xrotation
		JOINT RightUpLeg
		{
			OFFSET -1.305520 -1.794630 0.839290
			CHANNELS 3 Zrotation Yrotation Xrotation
			JOINT RightLeg
			{
				OFFSET -2.542530 -6.985550 0.000000
				CHANNELS 3 Zrotation Yrotation Xrotation
				JOINT RightFoot
				{
					OFFSET -2.568260 -7.056230 0.000000
					CHANNELS 3 Zrotation Yrotation Xrotation
					JOINT RightToeBase
					{
						OFFSET -0.164730 -0.452590 2.363150
						CHANNELS 3 Zrotation Yrotation Xrotation
						End Site
						{
							OFFSET 0.000000 0.000000 0.000000
						}
					}
				}
			}
		}
	}
}
MOTION
Frames: 19
Frame Time: 0.008333
1.463815 17.436242 0.550646 -178.260808 -52.831696 -164.018818 -12.129579 4.211354 -1.309778 -14.191970 38.197638 -23.092268 -4.032482 -0.598225 2.215174 1.990863 15.728705 3.458982 3.087100 0.000000 -52.024600 8.617149 -1.978260 7.529174 -0.101511 9.636574 -22.871065 3.537817 1.868866 -2.904493 1.884361 9.194226 12.522301 2.187300 -0.000000 -73.539300
1.452697 17.432545 0.559494 -178.257714 -53.056938 -164.154659 -12.184751 4.206172 -1.309761 -14.025707 38.211213 -22.724411 -4.017715 -0.631617 1.867691 1.968332 15.604124 3.435955 3.051100 -0.000000 -51.886501 8.583573 -2.007567 7.540208 -0.174448 9.809658 -22.686151 3.502601 1.855757 -2.773904 1.841429 8.846563 12.333922 2.047399 0.000000 -73.469700
1.443129 17.428199 0.569089 -178.263334 -53.353590 -164.306270 -12.236656 4.197437 -1.299177 -13.823086 38.124614 -22.323303 -3.989812 -0.663413 1.556578 1.958201 15.550346 3.370116 3.020600 0.000000 -51.700100 8.554454 -2.032522 7.535888 -0.250991 9.970167 -22.452385 3.462295 1.843230 -2.634280 1.791003 8.448000 12.106120 1.887700 -0.000001 -73.375100
1.435059 17.423099 0.578728 -178.284512 -53.736338 -164.443847 -12.278816 4.184914 -1.279934 -13.621354 37.950558 -21.943646 -3.955671 -0.692392 1.304267 1.956579 15.536644 3.254822 2.987400 -0.000000 -51.462501 8.532545 -2.052705 7.518624 -0.333822 10.106684 -22.197345 3.416463 1.831918 -2.487191 1.732989 7.999919 11.836257 1.709800 -0.000001 -73.260600
1.428566 17.417391 0.588885 -178.318828 -54.199657 -164.580781 -12.313788 4.169396 -1.254229 -13.409876 37.695272 -21.556392 -3.913627 -0.720184 1.082154 1.963441 15.567528 3.102372 2.955100 0.000000 -51.182300 8.517853 -2.066860 7.482048 -0.412342 10.202247 -21.904702 3.366889 1.821784 -2.337265 1.668956 7.520755 11.530903 1.522099 0.000000 -73.130200
1.423231 17.411079 0.598936 -178.375493 -54.738278 -164.692046 -12.340653 4.154246 -1.217443 -13.223106 37.379608 -21.210350 -3.870297 -0.745924 0.903565 1.974417 15.609992 2.913235 2.916600 -0.000000 -50.859300 8.508248 -2.077455 7.435381 -0.489427 10.253581 -21.605092 3.314926 1.814292 -2.183604 1.599859 7.013772 11.193038 1.326700 -0.000001 -72.981600
1.419010 17.404270 0.609108 -178.451651 -55.336943 -164.785972 -12.361470 4.140407 -1.173448 -13.053048 37.019035 -20.881544 -3.825635 -0.770753 0.743654 1.987983 15.659257 2.703290 2.874401 -0.000000 -50.508700 8.503895 -2.083644 7.375829 -0.559375 10.254025 -21.291631 3.261625 1.808795 -2.027301 1.527211 6.495655 10.828668 1.130701 -0.000000 -72.817000
1.415818 17.397083 0.619106 -178.550693 -55.978596 -164.855032 -12.376616 4.129221 -1.123932 -12.907051 36.633489 -20.576168 -3.782546 -0.794645 0.595307 2.001170 15.698040 2.484310 2.827799 0.000000 -50.145000 8.504328 -2.085737 7.306824 -0.622079 10.205568 -20.976482 3.207632 1.805115 -1.867748 1.452073 5.974689 10.443577 0.938100 0.000000 -72.637700
1.413384 17.389643 0.628580 -178.672818 -56.644106 -164.886907 -12.385977 4.121534 -1.069953 -12.799069 36.245086 -20.317342 -3.745323 -0.816986 0.461840 2.010540 15.703734 2.263708 2.774100 -0.000001 -49.782200 8.508162 -2.084456 7.235512 -0.680072 10.119539 -20.684523 3.153488 1.803256 -1.702053 1.375020 5.452837 10.043931 0.750200 -0.000001 -72.445300
1.411601 17.382111 0.637469 -178.814496 -57.313725 -164.885929 -12.390848 4.117149 -1.015686 -12.719893 35.867303 -20.085491 -3.713817 -0.838719 0.326170 2.014762 15.674434 2.057644 2.717500 -0.000000 -49.440501 8.515725 -2.080097 7.162641 -0.732993 10.002750 -20.415862 3.099331 1.802038 -1.530565 1.297081 4.940346 9.636835 0.571200 -0.000000 -72.241200
1.410527 17.374679 0.645561 -178.969287 -57.972908 -164.847573 -12.390457 4.116697 -0.968981 -12.668849 35.510220 -19.883022 -3.690177 -0.859651 0.181792 2.013008 15.606449 1.876945 2.660200 0.000000 -49.135000 8.528173 -2.070178 7.087389 -0.782630 9.868252 -20.183198 3.045138 1.801346 -1.351158 1.219631 4.442866 9.229344 0.403000 0.000000 -72.028200
1.409577 17.367408 0.652541 -179.142602 -58.601466 -164.770907 -12.387005 4.116459 -0.919020 -12.651032 35.189991 -19.719289 -3.673986 -0.880918 0.037127 2.002502 15.487487 1.724909 2.601400 -0.000000 -48.879100 8.541050 -2.063618 7.026815 -0.832359 9.730192 -20.001623 2.991098 1.799165 -1.164445 1.141306 3.957307 8.825948 0.244900 -0.000000 -71.807799
1.408980 17.360481 0.658337 -179.330159 -59.191145 -164.657713 -12.380372 4.117167 -0.872348 -12.658972 34.907073 -19.584592 -3.665228 -0.902919 -0.116200 1.984385 15.327502 1.609248 2.545100 0.000001 -48.681001 8.555595 -2.058519 6.978080 -0.883588 9.597937 -19.873419 2.937211 1.795303 -0.968834 1.063844 3.492212 8.432045 0.099300 -0.000000 -71.584600
1.408375 17.353954 0.662996 -179.519389 -59.733055 -164.515919 -12.371743 4.117564 -0.829175 -12.686982 34.664644 -19.479330 -3.663404 -0.925800 -0.276079 1.959212 15.130682 1.529492 2.491900 0.000000 -48.543400 8.570332 -2.056260 6.943785 -0.934768 9.481984 -19.801183 2.884320 1.789547 -0.765768 0.987917 3.049790 8.054391 -0.034000 0.000000 -71.361700
1.407898 17.347942 0.666582 -179.707171 -60.222894 -164.352872 -12.361443 4.116350 -0.789665 -12.729301 34.460748 -19.399273 -3.667145 -0.949748 -0.441614 1.928367 14.906770 1.484085 2.443200 0.000000 -48.462099 8.584813 -2.057485 6.924357 -0.985313 9.387538 -19.783226 2.832842 1.781401 -0.555834 0.914397 2.634642 7.697049 -0.154199 -0.000000 -71.143500
1.407356 17.342468 0.669251 -179.883463 -60.659307 -164.178471 -12.350173 4.112597 -0.753517 -12.780202 34.291539 -19.340785 -3.674983 -0.974912 -0.611399 1.893657 14.666929 1.468130 2.399500 -0.000000 -48.427600 8.598359 -2.062618 6.919124 -1.033190 9.316813 -19.815401 2.783622 1.770842 -0.340838 0.844241 2.250895 7.363767 -0.261100 0.000000 -70.934800
1.406704 17.337521 0.671158 179.957539 -61.044772 -164.001007 -12.338281 4.105633 -0.719995 -12.835224 34.150041 -19.300102 -3.685250 -1.001399 -0.784553 1.857213 14.423852 1.475310 2.361400 -0.000000 -48.425700 8.610632 -2.071481 6.926281 -1.076733 9.268577 -19.891840 2.737395 1.757988 -0.122614 0.778445 1.902794 7.056619 -0.354600 -0.000001 -70.739100
1.405961 17.333100 0.672699 179.825816 -61.382704 -163.835079 -12.326590 4.094739 -0.690144 -12.886663 34.034072 -19.272580 -3.696688 -1.028521 -0.957772 1.820485 14.184504 1.497173 2.327600 -0.000000 -48.442100 8.620970 -2.083012 6.941971 -1.111463 9.240128 -19.999740 2.695230 1.743308 0.093913 0.717884 1.592284 6.779295 -0.435100 0.000000 -70.560800
1.405099 17.329147 0.673888 179.719902 -61.680315 -163.680623 -12.314940 4.080318 -0.661640 -12.935668 33.931028 -19.255408 -3.707659 -1.056782 -1.133004 1.785887 13.963407 1.527268 2.299300 0.000000 -48.459100 8.629670 -2.096668 6.963961 -1.138207 9.224985 -20.134318 2.657406 1.727211 0.308185 0.663294 1.322481 6.529165 -0.502600 -0.000000 -70.400801
